<svg width="32" height="33" viewBox="0 0 32 33" fill="none" xmlns="http://www.w3.org/2000/svg">
<rect y="0.5" width="32" height="32" rx="16" fill="#79747E"/>
<path d="M16.5723 16.998H13.6895L13.6738 15.7871H16.291C16.7233 15.7871 17.1009 15.7142 17.4238 15.5684C17.7467 15.4225 17.9967 15.2142 18.1738 14.9434C18.3561 14.6673 18.4473 14.3392 18.4473 13.959C18.4473 13.5423 18.3665 13.2038 18.2051 12.9434C18.0488 12.6777 17.8066 12.485 17.4785 12.3652C17.1556 12.2402 16.7441 12.1777 16.2441 12.1777H14.0254V22.3184H12.5176V10.9434H16.2441C16.8275 10.9434 17.3483 11.0033 17.8066 11.123C18.265 11.2376 18.653 11.4199 18.9707 11.6699C19.2936 11.9147 19.5384 12.2272 19.7051 12.6074C19.8717 12.9876 19.9551 13.4434 19.9551 13.9746C19.9551 14.4434 19.8353 14.8678 19.5957 15.248C19.3561 15.623 19.0228 15.9303 18.5957 16.1699C18.1738 16.4095 17.679 16.5632 17.1113 16.6309L16.5723 16.998ZM16.502 22.3184H13.0957L13.9473 21.0918H16.502C16.9811 21.0918 17.3874 21.0085 17.7207 20.8418C18.0592 20.6751 18.3171 20.4408 18.4941 20.1387C18.6712 19.8314 18.7598 19.4694 18.7598 19.0527C18.7598 18.6309 18.6842 18.2663 18.5332 17.959C18.3822 17.6517 18.1452 17.4147 17.8223 17.248C17.4993 17.0814 17.0827 16.998 16.5723 16.998H14.4238L14.4395 15.7871H17.377L17.6973 16.2246C18.2441 16.2715 18.7077 16.4277 19.0879 16.6934C19.4681 16.9538 19.7572 17.2871 19.9551 17.6934C20.1582 18.0996 20.2598 18.5475 20.2598 19.0371C20.2598 19.7454 20.1035 20.3444 19.791 20.834C19.4837 21.3184 19.0488 21.6882 18.4863 21.9434C17.9238 22.1934 17.2624 22.3184 16.502 22.3184Z" fill="white"/>
</svg>
