<svg width="14" height="18" viewBox="0 0 14 18" fill="none" xmlns="http://www.w3.org/2000/svg">
<path opacity="0.65" d="M12.0002 6.16744H11.1668V4.50077C11.1668 2.20077 9.30016 0.334106 7.00016 0.334106C4.70016 0.334106 2.8335 2.20077 2.8335 4.50077V6.16744H2.00016C1.0835 6.16744 0.333496 6.91744 0.333496 7.83411V16.1674C0.333496 17.0841 1.0835 17.8341 2.00016 17.8341H12.0002C12.9168 17.8341 13.6668 17.0841 13.6668 16.1674V7.83411C13.6668 6.91744 12.9168 6.16744 12.0002 6.16744ZM7.00016 13.6674C6.0835 13.6674 5.3335 12.9174 5.3335 12.0008C5.3335 11.0841 6.0835 10.3341 7.00016 10.3341C7.91683 10.3341 8.66683 11.0841 8.66683 12.0008C8.66683 12.9174 7.91683 13.6674 7.00016 13.6674ZM9.5835 6.16744H4.41683V4.50077C4.41683 3.07577 5.57516 1.91744 7.00016 1.91744C8.42516 1.91744 9.5835 3.07577 9.5835 4.50077V6.16744Z" fill="#49454F"/>
</svg>
