<svg width="6" height="21" viewBox="0 0 6 21" fill="none" xmlns="http://www.w3.org/2000/svg">
<path d="M2.99976 5.49951C4.37476 5.49951 5.49976 4.37451 5.49976 2.99951C5.49976 1.62451 4.37476 0.499512 2.99976 0.499512C1.62476 0.499512 0.499756 1.62451 0.499756 2.99951C0.499756 4.37451 1.62476 5.49951 2.99976 5.49951ZM2.99976 7.99951C1.62476 7.99951 0.499756 9.12451 0.499756 10.4995C0.499756 11.8745 1.62476 12.9995 2.99976 12.9995C4.37476 12.9995 5.49976 11.8745 5.49976 10.4995C5.49976 9.12451 4.37476 7.99951 2.99976 7.99951ZM2.99976 15.4995C1.62476 15.4995 0.499756 16.6245 0.499756 17.9995C0.499756 19.3745 1.62476 20.4995 2.99976 20.4995C4.37476 20.4995 5.49976 19.3745 5.49976 17.9995C5.49976 16.6245 4.37476 15.4995 2.99976 15.4995Z" fill="#79747E"/>
</svg>
